Jinko-Bold.ufo
<glyph name="numbersign" format="1">
  <advance width="1600"/>
  <unicode hex="0023"/>
  <outline>
    <contour>
      <point x="240" y="-2" type="line"/>
      <point x="502" y="-2" type="line"/>
      <point x="587" y="393" type="line"/>
      <point x="845" y="393" type="line"/>
      <point x="761" y="-2" type="line"/>
      <point x="1021" y="-2" type="line"/>
      <point x="1107" y="393" type="line"/>
      <point x="1420" y="393" type="line"/>
      <point x="1420" y="630" type="line"/>
      <point x="1160" y="630" type="line"/>
      <point x="1237" y="955" type="line"/>
      <point x="1529" y="955" type="line"/>
      <point x="1529" y="1190" type="line"/>
      <point x="1292" y="1190" type="line"/>
      <point x="1375" y="1574" type="line"/>
      <point x="1110" y="1574" type="line"/>
      <point x="1027" y="1190" type="line"/>
      <point x="773" y="1190" type="line"/>
      <point x="854" y="1574" type="line"/>
      <point x="589" y="1574" type="line"/>
      <point x="507" y="1190" type="line"/>
      <point x="183" y="1190" type="line"/>
      <point x="183" y="955" type="line"/>
      <point x="454" y="955" type="line"/>
      <point x="377" y="630" type="line"/>
      <point x="73" y="630" type="line"/>
      <point x="73" y="393" type="line"/>
      <point x="324" y="393" type="line"/>
    </contour>
    <contour>
      <point x="640" y="628" type="line"/>
      <point x="718" y="957" type="line"/>
      <point x="977" y="957" type="line"/>
      <point x="901" y="628" type="line"/>
    </contour>
  </outline>
</glyph>
<glyph name="percent" format="1">
  <advance width="2273"/>
  <unicode hex="0025"/>
  <outline>
    <contour>
      <point x="516" y="894" type="curve" smooth="yes"/>
      <point x="411" y="894"/>
      <point x="361" y="1008"/>
      <point x="361" y="1124" type="curve" smooth="yes"/>
      <point x="361" y="1244"/>
      <point x="415" y="1367"/>
      <point x="515" y="1367" type="curve" smooth="yes"/>
      <point x="619" y="1367"/>
      <point x="669" y="1254"/>
      <point x="669" y="1140" type="curve" smooth="yes"/>
      <point x="669" y="1019"/>
      <point x="614" y="894"/>
    </contour>
    <contour>
      <point x="515" y="681" type="curve" smooth="yes"/>
      <point x="783" y="681"/>
      <point x="924" y="910"/>
      <point x="924" y="1138" type="curve" smooth="yes"/>
      <point x="924" y="1360"/>
      <point x="792" y="1578"/>
      <point x="516" y="1579" type="curve"/>
      <point x="239" y="1576"/>
      <point x="102" y="1352"/>
      <point x="102" y="1127" type="curve" smooth="yes"/>
      <point x="102" y="903"/>
      <point x="239" y="681"/>
    </contour>
    <contour>
      <point x="586" y="0" type="line"/>
      <point x="860" y="0" type="line"/>
      <point x="1686" y="1574" type="line"/>
      <point x="1412" y="1574" type="line"/>
    </contour>
    <contour>
      <point x="1757" y="210" type="curve" smooth="yes"/>
      <point x="1653" y="210"/>
      <point x="1604" y="323"/>
      <point x="1604" y="437" type="curve" smooth="yes"/>
      <point x="1604" y="557"/>
      <point x="1658" y="682"/>
      <point x="1754" y="685" type="curve"/>
      <point x="1858" y="685"/>
      <point x="1908" y="567"/>
      <point x="1908" y="450" type="curve" smooth="yes"/>
      <point x="1908" y="330"/>
      <point x="1857" y="210"/>
    </contour>
    <contour>
      <point x="1757" y="-4" type="curve" smooth="yes"/>
      <point x="2025" y="-4"/>
      <point x="2165" y="228"/>
      <point x="2165" y="456" type="curve" smooth="yes"/>
      <point x="2165" y="678"/>
      <point x="2033" y="895"/>
      <point x="1757" y="895" type="curve"/>
      <point x="1481" y="892"/>
      <point x="1343" y="668"/>
      <point x="1343" y="443" type="curve" smooth="yes"/>
      <point x="1343" y="219"/>
      <point x="1481" y="-4"/>
    </contour>
  </outline>
</glyph>
<glyph name="ampersand" format="1">
  <advance width="1697"/>
  <unicode hex="0026"/>
  <outline>
    <contour>
      <point x="683" y="-25" type="curve" smooth="yes"/>
      <point x="854" y="-25"/>
      <point x="1003" y="23"/>
      <point x="1148" y="113" type="curve"/>
      <point x="1148" y="113"/>
      <point x="1283" y="0"/>
      <point x="1283" y="0" type="curve"/>
      <point x="1791" y="0" type="line"/>
      <point x="1791" y="0"/>
      <point x="1449" y="298"/>
      <point x="1395" y="349" type="curve"/>
      <point x="1540.32526261" y="484.906032626"/>
      <point x="1560.42606938" y="655.154176408"/>
      <point x="1576" y="807" type="curve"/>
      <point x="1205" y="835" type="line"/>
      <point x="1205" y="792"/>
      <point x="1203" y="643"/>
      <point x="1168" y="560" type="curve"/>
      <point x="1067" y="661"/>
      <point x="966" y="764"/>
      <point x="867" y="867" type="curve"/>
      <point x="1107" y="951"/>
      <point x="1201" y="1091"/>
      <point x="1201" y="1252" type="curve" smooth="yes"/>
      <point x="1201" y="1445"/>
      <point x="1033" y="1600"/>
      <point x="707" y="1600" type="curve" smooth="yes"/>
      <point x="331" y="1600"/>
      <point x="193" y="1406"/>
      <point x="193" y="1229" type="curve" smooth="yes"/>
      <point x="193" y="1078"/>
      <point x="276" y="983"/>
      <point x="370" y="896" type="curve"/>
      <point x="215" y="812"/>
      <point x="83" y="678"/>
      <point x="83" y="464" type="curve" smooth="yes"/>
      <point x="83" y="184"/>
      <point x="309" y="-25"/>
    </contour>
    <contour>
      <point x="700" y="252" type="curve" smooth="yes"/>
      <point x="609" y="260"/>
      <point x="481" y="349"/>
      <point x="481" y="510" type="curve" smooth="yes"/>
      <point x="481" y="567"/>
      <point x="504" y="658"/>
      <point x="559" y="706" type="curve"/>
      <point x="693" y="572"/>
      <point x="826" y="438"/>
      <point x="961" y="308" type="curve"/>
      <point x="879" y="260"/>
      <point x="810" y="242"/>
    </contour>
    <contour>
      <point x="711" y="1024" type="curve"/>
      <point x="643" y="1091"/>
      <point x="579" y="1163"/>
      <point x="579" y="1233" type="curve" smooth="yes"/>
      <point x="579" y="1340"/>
      <point x="657" y="1360"/>
      <point x="690" y="1360" type="curve" smooth="yes"/>
      <point x="727" y="1360"/>
      <point x="818" y="1344"/>
      <point x="818" y="1217" type="curve" smooth="yes"/>
      <point x="818" y="1149"/>
      <point x="789" y="1089"/>
    </contour>
  </outline>
</glyph>
<glyph name="quotesingle" format="1">
  <advance width="599"/>
  <unicode hex="0027"/>
  <outline>
    <contour>
      <point x="181" y="938" type="line"/>
      <point x="413" y="938" type="line"/>
      <point x="465" y="1621" type="line"/>
      <point x="136" y="1621" type="line"/>
    </contour>
  </outline>
</glyph>
<glyph name="parenleft" format="1">
  <advance width="894"/>
  <unicode hex="0028"/>
  <outline>
    <contour>
      <point x="499" y="-361" type="curve"/>
      <point x="841" y="-361" type="line"/>
      <point x="835" y="-340"/>
      <point x="829" y="-318"/>
      <point x="824" y="-296" type="curve"/>
      <point x="629" y="-81"/>
      <point x="454" y="236"/>
      <point x="454" y="629" type="curve" smooth="yes"/>
      <point x="454" y="1034"/>
      <point x="638" y="1343"/>
      <point x="824" y="1555" type="curve"/>
      <point x="829" y="1577"/>
      <point x="835" y="1599"/>
      <point x="841" y="1621" type="curve"/>
      <point x="499" y="1621" type="line"/>
      <point x="261" y="1351"/>
      <point x="104" y="1059"/>
      <point x="104" y="629" type="curve" smooth="yes"/>
      <point x="104" y="222"/>
      <point x="262" y="-92"/>
    </contour>
  </outline>
</glyph>
<glyph name="plus" format="1">
  <advance width="1595"/>
  <unicode hex="002B"/>
  <outline>
    <contour>
      <point x="665" y="9" type="line"/>
      <point x="932" y="9" type="line"/>
      <point x="932" y="487" type="line"/>
      <point x="1434" y="487" type="line"/>
      <point x="1434" y="738" type="line"/>
      <point x="932" y="738" type="line"/>
      <point x="932" y="1214" type="line"/>
      <point x="665" y="1214" type="line"/>
      <point x="665" y="738" type="line"/>
      <point x="162" y="738" type="line"/>
      <point x="162" y="487" type="line"/>
      <point x="665" y="487" type="line"/>
    </contour>
  </outline>
</glyph>
<glyph name="hyphen" format="1">
  <advance width="894"/>
  <unicode hex="002D"/>
  <outline>
    <contour>
      <point x="101" y="491" type="line"/>
      <point x="792" y="491" type="line"/>
      <point x="792" y="771" type="line"/>
      <point x="101" y="771" type="line"/>
    </contour>
  </outline>
</glyph>
<glyph name="period" format="1">
  <advance width="725"/>
  <unicode hex="002E"/>
  <outline>
    <contour>
      <point x="369" y="-24" type="curve" smooth="yes"/>
      <point x="490" y="-24"/>
      <point x="589" y="77"/>
      <point x="589" y="196" type="curve" smooth="yes"/>
      <point x="589" y="316"/>
      <point x="490" y="415"/>
      <point x="369" y="415" type="curve" smooth="yes"/>
      <point x="250" y="415"/>
      <point x="151" y="316"/>
      <point x="151" y="196" type="curve" smooth="yes"/>
      <point x="151" y="77"/>
      <point x="250" y="-24"/>
    </contour>
  </outline>
</glyph>
<glyph name="two" format="1">
  <advance width="1323"/>
  <unicode hex="0032"/>
  <outline>
    <contour>
      <point x="134" y="0" type="line"/>
      <point x="1274" y="0" type="line"/>
      <point x="1274" y="302" type="line"/>
      <point x="652" y="302" type="line"/>
      <point x="863" y="466"/>
      <point x="1224" y="804"/>
      <point x="1224" y="1120" type="curve" smooth="yes"/>
      <point x="1224" y="1412"/>
      <point x="1020" y="1598"/>
      <point x="653" y="1598" type="curve" smooth="yes"/>
      <point x="473" y="1598"/>
      <point x="239" y="1525"/>
      <point x="159" y="1455" type="curve"/>
      <point x="240" y="1171" type="line"/>
      <point x="298" y="1203"/>
      <point x="467" y="1276"/>
      <point x="608" y="1276" type="curve" smooth="yes"/>
      <point x="721" y="1276"/>
      <point x="817" y="1229"/>
      <point x="817" y="1075" type="curve" smooth="yes"/>
      <point x="817" y="831"/>
      <point x="330" y="417"/>
      <point x="134" y="250" type="curve"/>
    </contour>
  </outline>
</glyph>
<glyph name="three" format="1">
  <advance width="1325"/>
  <unicode hex="0033"/>
  <outline>
    <contour>
      <point x="610" y="-25" type="curve" smooth="yes"/>
      <point x="1019" y="-25"/>
      <point x="1251" y="181"/>
      <point x="1251" y="479" type="curve" smooth="yes"/>
      <point x="1251" y="678"/>
      <point x="1093" y="781"/>
      <point x="955" y="823" type="curve"/>
      <point x="1093" y="884"/>
      <point x="1209" y="992"/>
      <point x="1194" y="1217" type="curve" smooth="yes"/>
      <point x="1179" y="1445"/>
      <point x="990" y="1600"/>
      <point x="614" y="1600" type="curve" smooth="yes"/>
      <point x="427" y="1600"/>
      <point x="215" y="1532"/>
      <point x="114" y="1461" type="curve"/>
      <point x="114" y="1135" type="line"/>
      <point x="194" y="1135" type="line"/>
      <point x="288" y="1226"/>
      <point x="420" y="1292"/>
      <point x="555" y="1292" type="curve" smooth="yes"/>
      <point x="645" y="1292"/>
      <point x="795" y="1257"/>
      <point x="795" y="1128" type="curve" smooth="yes"/>
      <point x="795" y="979"/>
      <point x="674" y="950"/>
      <point x="495" y="950" type="curve" smooth="yes"/>
      <point x="429" y="950" type="line"/>
      <point x="429" y="706" type="line"/>
      <point x="578" y="706" type="line" smooth="yes"/>
      <point x="769" y="706"/>
      <point x="847" y="648"/>
      <point x="847" y="514" type="curve" smooth="yes"/>
      <point x="847" y="317"/>
      <point x="669" y="280"/>
      <point x="528" y="283" type="curve" smooth="yes"/>
      <point x="375" y="287"/>
      <point x="258" y="356"/>
      <point x="176" y="437" type="curve"/>
      <point x="114" y="437" type="line"/>
      <point x="114" y="103" type="line"/>
      <point x="220" y="28"/>
      <point x="369" y="-25"/>
    </contour>
  </outline>
</glyph>
<glyph name="five" format="1">
  <advance width="1322"/>
  <unicode hex="0035"/>
  <outline>
    <contour>
      <point x="629" y="-25" type="curve" smooth="yes"/>
      <point x="1018" y="-25"/>
      <point x="1275" y="148"/>
      <point x="1275" y="519" type="curve" smooth="yes"/>
      <point x="1275" y="887"/>
      <point x="917" y="983"/>
      <point x="711" y="1003" type="curve" smooth="yes"/>
      <point x="664" y="1008"/>
      <point x="532" y="1019"/>
      <point x="532" y="1020" type="curve"/>
      <point x="532" y="1273" type="line"/>
      <point x="1152" y="1273" type="line"/>
      <point x="1152" y="1574" type="line"/>
      <point x="152" y="1574" type="line"/>
      <point x="152" y="794" type="line"/>
      <point x="152" y="794"/>
      <point x="439" y="769"/>
      <point x="542" y="759" type="curve" smooth="yes"/>
      <point x="687" y="745"/>
      <point x="871" y="679"/>
      <point x="871" y="513" type="curve" smooth="yes"/>
      <point x="871" y="355"/>
      <point x="765" y="288"/>
      <point x="576" y="288" type="curve" smooth="yes"/>
      <point x="397" y="288"/>
      <point x="221" y="396"/>
      <point x="201" y="438" type="curve"/>
      <point x="123" y="438" type="line"/>
      <point x="123" y="127" type="line"/>
      <point x="225" y="34"/>
      <point x="399" y="-25"/>
    </contour>
  </outline>
</glyph>
<glyph name="six" format="1">
  <advance width="1322"/>
  <unicode hex="0036"/>
  <outline>
    <contour>
      <point x="678" y="-25" type="curve" smooth="yes"/>
      <point x="1029" y="-25"/>
      <point x="1260" y="183"/>
      <point x="1260" y="527" type="curve" smooth="yes"/>
      <point x="1260" y="852"/>
      <point x="1092" y="1020"/>
      <point x="822" y="1020" type="curve" smooth="yes"/>
      <point x="721" y="1020"/>
      <point x="627" y="986"/>
      <point x="553" y="943" type="curve"/>
      <point x="624" y="1196"/>
      <point x="819" y="1270"/>
      <point x="1115" y="1298" type="curve"/>
      <point x="1052" y="1573" type="line"/>
      <point x="421" y="1537"/>
      <point x="93" y="1212"/>
      <point x="93" y="593" type="curve" smooth="yes"/>
      <point x="93" y="199"/>
      <point x="322" y="-25"/>
    </contour>
    <contour>
      <point x="667" y="248" type="curve" smooth="yes"/>
      <point x="536" y="248"/>
      <point x="475" y="363"/>
      <point x="475" y="508" type="curve" smooth="yes"/>
      <point x="475" y="643"/>
      <point x="481" y="741"/>
      <point x="675" y="741" type="curve" smooth="yes"/>
      <point x="784" y="741"/>
      <point x="865" y="684"/>
      <point x="865" y="513" type="curve" smooth="yes"/>
      <point x="865" y="350"/>
      <point x="837" y="248"/>
    </contour>
  </outline>
</glyph>
<glyph name="nine" format="1">
  <advance width="1323"/>
  <unicode hex="0039"/>
  <outline>
    <contour>
      <point x="269" y="0" type="curve"/>
      <point x="944" y="0"/>
      <point x="1231" y="389"/>
      <point x="1238" y="941" type="curve"/>
      <point x="1238" y="1370"/>
      <point x="1009" y="1598"/>
      <point x="650" y="1598" type="curve" smooth="yes"/>
      <point x="299" y="1598"/>
      <point x="64" y="1383"/>
      <point x="64" y="1045" type="curve" smooth="yes"/>
      <point x="64" y="666"/>
      <point x="324" y="553"/>
      <point x="504" y="553" type="curve" smooth="yes"/>
      <point x="562" y="553"/>
      <point x="681" y="564"/>
      <point x="771" y="631" type="curve"/>
      <point x="684" y="276"/>
      <point x="207" y="258"/>
      <point x="207" y="258" type="curve"/>
      <point x="230" y="175"/>
      <point x="250" y="86"/>
    </contour>
    <contour>
      <point x="688" y="830" type="curve" smooth="yes"/>
      <point x="576" y="830"/>
      <point x="467" y="878"/>
      <point x="467" y="1067" type="curve" smooth="yes"/>
      <point x="467" y="1261"/>
      <point x="581" y="1322"/>
      <point x="646" y="1322" type="curve" smooth="yes"/>
      <point x="767" y="1322"/>
      <point x="837" y="1218"/>
      <point x="837" y="993" type="curve" smooth="yes"/>
      <point x="837" y="870"/>
      <point x="760" y="830"/>
    </contour>
  </outline>
</glyph>
<glyph name="less" format="1">
  <advance width="1596"/>
  <unicode hex="003C"/>
  <outline>
    <contour>
      <point x="1436" y="-15" type="line"/>
      <point x="1436" y="250" type="line"/>
      <point x="1436" y="250"/>
      <point x="564.0" y="586.0"/>
      <point x="475" y="620" type="curve"/>
      <point x="572.0" y="652.0"/>
      <point x="1436" y="974"/>
      <point x="1436" y="974" type="curve"/>
      <point x="1436" y="1239" type="line"/>
      <point x="136" y="723" type="line"/>
      <point x="136" y="502" type="line"/>
    </contour>
  </outline>
</glyph>
<glyph name="equal" format="1">
  <advance width="1596"/>
  <unicode hex="003D"/>
  <outline>
    <contour>
      <point x="182" y="243" type="line"/>
      <point x="1417" y="243" type="line"/>
      <point x="1417" y="493" type="line"/>
      <point x="182" y="493" type="line"/>
    </contour>
    <contour>
      <point x="182" y="733" type="line"/>
      <point x="1417" y="733" type="line"/>
      <point x="1417" y="983" type="line"/>
      <point x="182" y="983" type="line"/>
    </contour>
  </outline>
</glyph>
<glyph name="greater" format="1">
  <advance width="1596"/>
  <unicode hex="003E"/>
  <outline>
    <contour>
      <point x="162" y="-15" type="line"/>
      <point x="1461" y="501" type="line"/>
      <point x="1461" y="722" type="line"/>
      <point x="162" y="1239" type="line"/>
      <point x="162" y="974" type="line"/>
      <point x="1088" y="612" type="line"/>
      <point x="162" y="250" type="line"/>
    </contour>
  </outline>
</glyph>
<glyph name="F" format="1">
  <advance width="1290"/>
  <unicode hex="0046"/>
  <outline>
    <contour>
      <point x="157" y="0" type="line"/>
      <point x="564" y="0" type="line"/>
      <point x="564" y="655" type="line"/>
      <point x="1194" y="655" type="line"/>
      <point x="1194" y="954" type="line"/>
      <point x="564" y="954" type="line"/>
      <point x="564" y="1270" type="line"/>
      <point x="1255" y="1270" type="line"/>
      <point x="1255" y="1574" type="line"/>
      <point x="157" y="1574" type="line"/>
    </contour>
  </outline>
</glyph>
<glyph name="L" format="1">
  <advance width="1298"/>
  <unicode hex="004C"/>
  <outline>
    <contour>
      <point x="157" y="0" type="line"/>
      <point x="1254" y="0" type="line"/>
      <point x="1254" y="304" type="line"/>
      <point x="566" y="304" type="line"/>
      <point x="566" y="1574" type="line"/>
      <point x="157" y="1574" type="line"/>
    </contour>
    <contour>
      <point x="649" y="1574" type="move"/>
    </contour>
    <contour>
      <point x="649" y="0" type="move"/>
    </contour>
    <contour>
      <point x="649" y="1574" type="move" name="top"/>
    </contour>
    <contour>
      <point x="649" y="0" type="move" name="bottom"/>
    </contour>
  </outline>
</glyph>
<glyph name="M" format="1">
  <advance width="1947"/>
  <unicode hex="004D"/>
  <outline>
    <contour>
      <point x="156" y="0" type="line"/>
      <point x="548" y="0" type="line"/>
      <point x="548" y="746" type="line" smooth="yes"/>
      <point x="548" y="797"/>
      <point x="547" y="892"/>
      <point x="549" y="933" type="curve"/>
      <point x="549" y="933"/>
      <point x="741" y="491"/>
      <point x="818" y="310" type="curve"/>
      <point x="1114" y="310" type="line"/>
      <point x="1203" y="518"/>
      <point x="1293" y="723"/>
      <point x="1383" y="933" type="curve"/>
      <point x="1386" y="892"/>
      <point x="1385" y="797"/>
      <point x="1385" y="746" type="curve" smooth="yes"/>
      <point x="1385" y="0" type="line"/>
      <point x="1791" y="0" type="line"/>
      <point x="1791" y="1574" type="line"/>
      <point x="1356" y="1574" type="line"/>
      <point x="974" y="743" type="line"/>
      <point x="595" y="1574" type="line"/>
      <point x="156" y="1574" type="line"/>
    </contour>
  </outline>
</glyph>
<glyph name="Q" format="1">
  <advance width="1611"/>
  <unicode hex="0051"/>
  <outline>
    <contour>
      <point x="1144" y="-475" type="line"/>
      <point x="1439" y="-315" type="line"/>
      <point x="1216" y="72" type="line"/>
      <point x="1430" y="198"/>
      <point x="1536" y="446"/>
      <point x="1536" y="788" type="curve" smooth="yes"/>
      <point x="1536" y="1311"/>
      <point x="1294" y="1600"/>
      <point x="807" y="1600" type="curve" smooth="yes"/>
      <point x="320" y="1600"/>
      <point x="75" y="1310"/>
      <point x="75" y="788" type="curve" smooth="yes"/>
      <point x="75" y="270"/>
      <point x="319" y="-25"/>
      <point x="807" y="-25" type="curve" smooth="yes"/>
      <point x="832" y="-25"/>
      <point x="858" y="-25"/>
      <point x="882" y="-23" type="curve"/>
    </contour>
    <contour>
      <point x="808" y="281" type="curve" smooth="yes"/>
      <point x="567" y="281"/>
      <point x="494" y="468"/>
      <point x="494" y="787" type="curve" smooth="yes"/>
      <point x="494" y="1108"/>
      <point x="568" y="1293"/>
      <point x="808" y="1293" type="curve" smooth="yes"/>
      <point x="1046" y="1293"/>
      <point x="1118" y="1104"/>
      <point x="1118" y="788" type="curve" smooth="yes"/>
      <point x="1118" y="481"/>
      <point x="1050" y="281"/>
    </contour>
  </outline>
</glyph>
<glyph name="S" format="1">
  <advance width="1281"/>
  <unicode hex="0053"/>
  <outline>
    <contour>
      <point x="649" y="-22" type="curve" smooth="yes"/>
      <point x="1056" y="-22"/>
      <point x="1327" y="173"/>
      <point x="1327" y="486" type="curve" smooth="yes"/>
      <point x="1327" y="749"/>
      <point x="1158" y="895"/>
      <point x="816" y="967" type="curve"/>
      <point x="558" y="1016"/>
      <point x="487" y="1046"/>
      <point x="487" y="1144" type="curve" smooth="yes"/>
      <point x="487" y="1283"/>
      <point x="622" y="1299"/>
      <point x="712" y="1299" type="curve" smooth="yes"/>
      <point x="879" y="1299"/>
      <point x="1035" y="1245"/>
      <point x="1156" y="1160" type="curve"/>
      <point x="1221" y="1160" type="line"/>
      <point x="1269" y="1471" type="line"/>
      <point x="1118" y="1547"/>
      <point x="918" y="1598"/>
      <point x="718" y="1598" type="curve" smooth="yes"/>
      <point x="347" y="1598"/>
      <point x="78" y="1391"/>
      <point x="78" y="1105" type="curve" smooth="yes"/>
      <point x="78" y="899"/>
      <point x="169" y="756"/>
      <point x="389" y="669" type="curve"/>
      <point x="577" y="588"/>
      <point x="914" y="619"/>
      <point x="914" y="434" type="curve" smooth="yes"/>
      <point x="914" y="309"/>
      <point x="760" y="277"/>
      <point x="649" y="277" type="curve" smooth="yes"/>
      <point x="482" y="277"/>
      <point x="307" y="338"/>
      <point x="161" y="445" type="curve"/>
      <point x="97" y="445" type="line"/>
      <point x="42" y="133" type="line"/>
      <point x="201" y="38"/>
      <point x="396" y="-22"/>
    </contour>
    <contour>
      <point x="641" y="1574" type="move" name="top"/>
    </contour>
    <contour>
      <point x="641" y="0" type="move" name="bottom"/>
    </contour>
  </outline>
</glyph>
<glyph name="X" format="1">
  <advance width="1437"/>
  <unicode hex="0058"/>
  <outline>
    <contour>
      <point x="-41" y="0" type="line"/>
      <point x="414" y="0" type="line"/>
      <point x="414" y="0"/>
      <point x="601.477" y="313.119"/>
      <point x="608.832" y="325.215" type="curve" smooth="yes"/>
      <point x="642.394" y="380.414"/>
      <point x="677.37" y="436.043"/>
      <point x="711" y="491" type="curve"/>
      <point x="743" y="439"/>
      <point x="779" y="382"/>
      <point x="812" y="329" type="curve"/>
      <point x="1005" y="0" type="line"/>
      <point x="1479" y="0" type="line"/>
      <point x="966" y="812" type="line"/>
      <point x="1452" y="1574" type="line"/>
      <point x="994" y="1574" type="line"/>
      <point x="827" y="1290" type="line" smooth="yes"/>
      <point x="790" y="1229"/>
      <point x="757" y="1176"/>
      <point x="722" y="1119" type="curve"/>
      <point x="688" y="1178.11"/>
      <point x="653.701" y="1236.78"/>
      <point x="619.335" y="1295.29" type="curve" smooth="yes"/>
      <point x="564.753" y="1388.21"/>
      <point x="510" y="1480.73"/>
      <point x="456" y="1574" type="curve"/>
      <point x="-16" y="1574" type="line"/>
      <point x="470" y="800" type="line"/>
    </contour>
  </outline>
</glyph>
<glyph name="Y" format="1">
  <advance width="1423"/>
  <unicode hex="0059"/>
  <outline>
    <contour>
      <point x="514" y="0" type="line"/>
      <point x="919" y="0" type="line"/>
      <point x="919" y="647" type="line"/>
      <point x="1458" y="1574" type="line"/>
      <point x="1008" y="1574" type="line"/>
      <point x="915" y="1383"/>
      <point x="819" y="1197"/>
      <point x="725" y="1004" type="curve"/>
      <point x="624" y="1193"/>
      <point x="527" y="1382"/>
      <point x="429" y="1574" type="curve"/>
      <point x="-34" y="1574" type="line"/>
      <point x="514" y="634" type="line"/>
    </contour>
    <contour>
      <point x="712" y="1574" type="move"/>
    </contour>
    <contour>
      <point x="712" y="1574" type="move" name="top"/>
    </contour>
  </outline>
</glyph>
<glyph name="Z" format="1">
  <advance width="1294"/>
  <unicode hex="005A"/>
  <outline>
    <contour>
      <point x="43" y="0" type="line"/>
      <point x="1264" y="0" type="line"/>
      <point x="1264" y="304" type="line"/>
      <point x="550" y="304" type="line"/>
      <point x="1229" y="1286" type="line"/>
      <point x="1229" y="1574" type="line"/>
      <point x="80" y="1574" type="line"/>
      <point x="80" y="1275" type="line"/>
      <point x="724" y="1275" type="line"/>
      <point x="43" y="289" type="line"/>
    </contour>
    <contour>
      <point x="647" y="1574" type="move"/>
    </contour>
    <contour>
      <point x="647" y="1574" type="move" name="top"/>
    </contour>
  </outline>
</glyph>
<glyph name="c" format="1">
  <advance width="1113"/>
  <unicode hex="0063"/>
  <outline>
    <contour>
      <point x="655" y="-25" type="curve" smooth="yes"/>
      <point x="808" y="-25"/>
      <point x="943" y="23"/>
      <point x="1057" y="85" type="curve"/>
      <point x="1002" y="349" type="line"/>
      <point x="917" y="279"/>
      <point x="818" y="236"/>
      <point x="686" y="236" type="curve" smooth="yes"/>
      <point x="538" y="236"/>
      <point x="418" y="315"/>
      <point x="418" y="547" type="curve" smooth="yes"/>
      <point x="418" y="777"/>
      <point x="545" y="869"/>
      <point x="699" y="869" type="curve" smooth="yes"/>
      <point x="792" y="869"/>
      <point x="906" y="824"/>
      <point x="1000" y="750" type="curve"/>
      <point x="1055" y="1015" type="line"/>
      <point x="913" y="1094"/>
      <point x="777" y="1126"/>
      <point x="645" y="1126" type="curve" smooth="yes"/>
      <point x="351" y="1126"/>
      <point x="50" y="974"/>
      <point x="50" y="548" type="curve" smooth="yes"/>
      <point x="50" y="147"/>
      <point x="329" y="-25"/>
    </contour>
    <contour>
      <point x="557" y="1098" type="move"/>
    </contour>
    <contour>
      <point x="557" y="0" type="move"/>
    </contour>
    <contour>
      <point x="557" y="1098" type="move" name="top"/>
    </contour>
    <contour>
      <point x="557" y="0" type="move" name="bottom"/>
    </contour>
  </outline>
</glyph>
<glyph name="e" format="1">
  <advance width="1211"/>
  <unicode hex="0065"/>
  <outline>
    <contour>
      <point x="690" y="-25" type="curve" smooth="yes"/>
      <point x="916" y="-25"/>
      <point x="1047" y="36"/>
      <point x="1132" y="96" type="curve"/>
      <point x="1082" y="325" type="line"/>
      <point x="1037" y="325" type="line"/>
      <point x="958" y="276"/>
      <point x="837" y="233"/>
      <point x="723" y="233" type="curve" smooth="yes"/>
      <point x="554" y="233"/>
      <point x="426" y="287"/>
      <point x="412" y="468" type="curve"/>
      <point x="1150" y="468" type="line"/>
      <point x="1150" y="617" type="line" smooth="yes"/>
      <point x="1150" y="943"/>
      <point x="960" y="1126"/>
      <point x="635" y="1126" type="curve" smooth="yes"/>
      <point x="286" y="1126"/>
      <point x="51" y="928"/>
      <point x="51" y="546" type="curve" smooth="yes"/>
      <point x="51" y="147"/>
      <point x="306" y="-25"/>
    </contour>
    <contour>
      <point x="412" y="684" type="line"/>
      <point x="416" y="823"/>
      <point x="490" y="897"/>
      <point x="609" y="897" type="curve" smooth="yes"/>
      <point x="726" y="897"/>
      <point x="794" y="825"/>
      <point x="800" y="684" type="curve"/>
    </contour>
    <contour>
      <point x="606" y="1098" type="move"/>
    </contour>
    <contour>
      <point x="606" y="0" type="move"/>
    </contour>
    <contour>
      <point x="1090" y="10" type="move"/>
    </contour>
    <contour>
      <point x="606" y="1098" type="move" name="top"/>
    </contour>
    <contour>
      <point x="606" y="0" type="move" name="bottom"/>
    </contour>
    <contour>
      <point x="1090" y="10" type="move" name="ogonek"/>
    </contour>
  </outline>
</glyph>
<glyph name="g" format="1">
  <advance width="1269"/>
  <unicode hex="0067"/>
  <outline>
    <contour>
      <point x="559.0" y="-428.0" type="curve" smooth="yes"/>
      <point x="873.0" y="-428.0"/>
      <point x="1144.0" y="-303.0"/>
      <point x="1144.0" y="93.0" type="curve" smooth="yes"/>
      <point x="1144.0" y="1102.0" type="line"/>
      <point x="773.0" y="1102.0" type="line"/>
      <point x="775.0" y="975.0" type="line"/>
      <point x="697.0" y="1086.0"/>
      <point x="602.0" y="1126.0"/>
      <point x="487.0" y="1126.0" type="curve" smooth="yes"/>
      <point x="198.0" y="1126.0"/>
      <point x="57.0" y="905.0"/>
      <point x="57.0" y="574.0" type="curve" smooth="yes"/>
      <point x="57.0" y="196.0"/>
      <point x="171.0" y="7.0"/>
      <point x="510.0" y="7.0" type="curve" smooth="yes"/>
      <point x="604.0" y="7.0"/>
      <point x="715.0" y="54.0"/>
      <point x="783.0" y="117.0" type="curve"/>
      <point x="783.0" y="113.0"/>
      <point x="783.0" y="110.0"/>
      <point x="783.0" y="106.0" type="curve" smooth="yes"/>
      <point x="781.0" y="-83.0"/>
      <point x="725.0" y="-160.0"/>
      <point x="507.0" y="-160.0" type="curve" smooth="yes"/>
      <point x="406.0" y="-160.0"/>
      <point x="286.0" y="-119.0"/>
      <point x="203.0" y="-81.0" type="curve"/>
      <point x="144.0" y="-332.0" type="line"/>
      <point x="246.0" y="-385.0"/>
      <point x="398.0" y="-428.0"/>
    </contour>
    <contour>
      <point x="624" y="265" type="curve" smooth="yes"/>
      <point x="469" y="265"/>
      <point x="424" y="358"/>
      <point x="424" y="580" type="curve" smooth="yes"/>
      <point x="424" y="751"/>
      <point x="505" y="860"/>
      <point x="641" y="860" type="curve" smooth="yes"/>
      <point x="679" y="860"/>
      <point x="729" y="852"/>
      <point x="775" y="833" type="curve"/>
      <point x="775" y="318" type="line"/>
      <point x="734" y="289"/>
      <point x="682" y="265"/>
    </contour>
    <contour>
      <point x="635" y="1098" type="move"/>
    </contour>
    <contour>
      <point x="635" y="1098" type="move" name="top"/>
    </contour>
  </outline>
</glyph>
<glyph name="k" format="1">
  <advance width="1247"/>
  <unicode hex="006B"/>
  <outline>
    <contour>
      <point x="123" y="0" type="line"/>
      <point x="485" y="0" type="line"/>
      <point x="485" y="385" type="line"/>
      <point x="578" y="489" type="line"/>
      <point x="870" y="0" type="line"/>
      <point x="1247" y="0" type="line"/>
      <point x="1247" y="83" type="line"/>
      <point x="874" y="652" type="line"/>
      <point x="1226" y="1055" type="line"/>
      <point x="1226" y="1102" type="line"/>
      <point x="840" y="1102" type="line"/>
      <point x="486" y="675" type="line"/>
      <point x="485" y="675" type="line"/>
      <point x="485" y="1527" type="line"/>
      <point x="123" y="1527" type="line"/>
    </contour>
    <contour>
      <point x="634" y="0" type="move"/>
    </contour>
    <contour>
      <point x="619" y="0" type="move" name="bottom"/>
    </contour>
  </outline>
</glyph>
<glyph name="v" format="1">
  <advance width="1133"/>
  <unicode hex="0076"/>
  <outline>
    <contour>
      <point x="377" y="0" type="line"/>
      <point x="755" y="0" type="line"/>
      <point x="1155" y="1102" type="line"/>
      <point x="783" y="1102" type="line"/>
      <point x="727.318" y="915.864"/>
      <point x="672.269" y="729.095"/>
      <point x="615.839" y="544.209" type="curve" smooth="yes"/>
      <point x="601.329" y="496.667"/>
      <point x="586.727" y="449.25"/>
      <point x="572" y="402" type="curve"/>
      <point x="570" y="402" type="line"/>
      <point x="527" y="544" type="line" smooth="yes"/>
      <point x="470" y="731"/>
      <point x="415" y="914"/>
      <point x="357" y="1102" type="curve"/>
      <point x="-22" y="1102" type="line"/>
    </contour>
  </outline>
</glyph>
<glyph name="bar" format="1">
  <advance width="1243"/>
  <unicode hex="007C"/>
  <outline>
    <contour>
      <point x="473" y="-461" type="line"/>
      <point x="771" y="-461" type="line"/>
      <point x="771" y="1648" type="line"/>
      <point x="473" y="1648" type="line"/>
    </contour>
  </outline>
</glyph>
<glyph name="braceright" format="1">
  <advance width="1147"/>
  <unicode hex="007D"/>
  <outline>
    <contour>
      <point x="16" y="-349" type="line"/>
      <point x="180" y="-349" type="line" smooth="yes"/>
      <point x="478" y="-349"/>
      <point x="701" y="-306"/>
      <point x="701" y="1" type="curve" smooth="yes"/>
      <point x="701" y="194" type="line" smooth="yes"/>
      <point x="701" y="438"/>
      <point x="798" y="515"/>
      <point x="1060" y="515" type="curve"/>
      <point x="1060" y="756" type="line"/>
      <point x="799" y="756"/>
      <point x="701" y="843"/>
      <point x="701" y="1078" type="curve" smooth="yes"/>
      <point x="701" y="1225" type="line" smooth="yes"/>
      <point x="701" y="1566"/>
      <point x="496" y="1621"/>
      <point x="168" y="1621" type="curve" smooth="yes"/>
      <point x="149" y="1621"/>
      <point x="16" y="1620"/>
      <point x="16" y="1620" type="curve"/>
      <point x="16" y="1394" type="line"/>
      <point x="44" y="1394"/>
      <point x="73" y="1395"/>
      <point x="97" y="1395" type="curve" smooth="yes"/>
      <point x="290" y="1395"/>
      <point x="357" y="1368"/>
      <point x="357" y="1114" type="curve" smooth="yes"/>
      <point x="357" y="1028" type="line" smooth="yes"/>
      <point x="357" y="804"/>
      <point x="492" y="694"/>
      <point x="645" y="646" type="curve"/>
      <point x="645" y="626" type="line"/>
      <point x="459" y="568"/>
      <point x="357" y="448"/>
      <point x="357" y="187" type="curve" smooth="yes"/>
      <point x="357" y="124" type="line" smooth="yes"/>
      <point x="357" y="-92"/>
      <point x="274" y="-124"/>
      <point x="88" y="-124" type="curve" smooth="yes"/>
      <point x="16" y="-124" type="line"/>
    </contour>
  </outline>
</glyph>
<glyph name="asciitilde" format="1">
  <advance width="1595"/>
  <unicode hex="007E"/>
  <outline>
    <contour>
      <point x="357" y="327" type="line"/>
      <point x="357" y="501"/>
      <point x="416" y="607"/>
      <point x="499" y="607" type="curve" smooth="yes"/>
      <point x="599.765966477" y="607.0"/>
      <point x="805" y="330"/>
      <point x="1097" y="330" type="curve" smooth="yes"/>
      <point x="1340" y="330"/>
      <point x="1457" y="508"/>
      <point x="1473" y="854" type="curve"/>
      <point x="1241" y="902" type="line"/>
      <point x="1241" y="799"/>
      <point x="1236" y="616"/>
      <point x="1094" y="616" type="curve" smooth="yes"/>
      <point x="930" y="616"/>
      <point x="730" y="900"/>
      <point x="513" y="900" type="curve" smooth="yes"/>
      <point x="284" y="900"/>
      <point x="144" y="727"/>
      <point x="128" y="373" type="curve"/>
    </contour>
  </outline>
</glyph>
<glyph name="currency" format="1">
  <advance width="987"/>
  <unicode hex="00A4"/>
  <outline>
    <contour>
      <point x="140" y="269" type="line"/>
      <point x="241" y="370" type="line"/>
      <point x="298" y="327"/>
      <point x="396" y="290"/>
      <point x="497" y="290" type="curve" smooth="yes"/>
      <point x="597" y="290"/>
      <point x="688" y="323"/>
      <point x="749" y="370" type="curve"/>
      <point x="850" y="269" type="line"/>
      <point x="957" y="376" type="line"/>
      <point x="858" y="477" type="line"/>
      <point x="903" y="534"/>
      <point x="939" y="631"/>
      <point x="939" y="733" type="curve" smooth="yes"/>
      <point x="939" y="833"/>
      <point x="903" y="930"/>
      <point x="858" y="989" type="curve"/>
      <point x="957" y="1089" type="line"/>
      <point x="850" y="1195" type="line"/>
      <point x="749" y="1098" type="line"/>
      <point x="688" y="1143"/>
      <point x="597" y="1176"/>
      <point x="497" y="1176" type="curve" smooth="yes"/>
      <point x="396" y="1176"/>
      <point x="298" y="1141"/>
      <point x="241" y="1096" type="curve"/>
      <point x="140" y="1195" type="line"/>
      <point x="31" y="1089" type="line"/>
      <point x="132" y="989" type="line"/>
      <point x="85" y="930"/>
      <point x="53" y="833"/>
      <point x="53" y="733" type="curve" smooth="yes"/>
      <point x="53" y="633"/>
      <point x="87" y="534"/>
      <point x="132" y="479" type="curve"/>
      <point x="31" y="376" type="line"/>
    </contour>
    <contour>
      <point x="497" y="438" type="curve" smooth="yes"/>
      <point x="328" y="438"/>
      <point x="214" y="551"/>
      <point x="214" y="733" type="curve" smooth="yes"/>
      <point x="214" y="915"/>
      <point x="328" y="1028"/>
      <point x="497" y="1028" type="curve" smooth="yes"/>
      <point x="666" y="1028"/>
      <point x="778" y="915"/>
      <point x="778" y="733" type="curve" smooth="yes"/>
      <point x="778" y="551"/>
      <point x="666" y="438"/>
    </contour>
  </outline>
</glyph>
<glyph name="brokenbar" format="1">
  <advance width="456"/>
  <unicode hex="00A6"/>
  <outline>
    <contour>
      <point x="108" y="-359" type="line"/>
      <point x="348" y="-359" type="line"/>
      <point x="348" y="359" type="line"/>
      <point x="108" y="359" type="line"/>
    </contour>
    <contour>
      <point x="108" y="669" type="line"/>
      <point x="348" y="669" type="line"/>
      <point x="348" y="1388" type="line"/>
      <point x="108" y="1388" type="line"/>
    </contour>
  </outline>
</glyph>
<glyph name="dieresis" format="1">
  <advance width="891"/>
  <unicode hex="00A8"/>
  <outline>
    <contour>
      <point x="115" y="1251" type="line"/>
      <point x="374" y="1251" type="line"/>
      <point x="374" y="1533" type="line"/>
      <point x="115" y="1533" type="line"/>
    </contour>
    <contour>
      <point x="509" y="1251" type="line"/>
      <point x="768" y="1251" type="line"/>
      <point x="768" y="1533" type="line"/>
      <point x="509" y="1533" type="line"/>
    </contour>
    <contour>
      <point x="443.5" y="1098" type="move"/>
    </contour>
    <contour>
      <point x="441.5" y="1098" type="move" name="_top"/>
    </contour>
  </outline>
</glyph>
<glyph name="guillemotleft" format="1">
  <advance width="1134"/>
  <unicode hex="00AB"/>
  <outline>
    <contour>
      <point x="593" y="143" type="line"/>
      <point x="593" y="445" type="line"/>
      <point x="392" y="631" type="line"/>
      <point x="593" y="824" type="line"/>
      <point x="593" y="1120" type="line"/>
      <point x="158" y="709" type="line"/>
      <point x="158" y="555" type="line"/>
    </contour>
    <contour>
      <point x="1028" y="143" type="line"/>
      <point x="1028" y="445" type="line"/>
      <point x="827" y="631" type="line"/>
      <point x="1028" y="824" type="line"/>
      <point x="1028" y="1120" type="line"/>
      <point x="593" y="709" type="line"/>
      <point x="593" y="555" type="line"/>
    </contour>
  </outline>
</glyph>
<glyph name="registered" format="1">
  <advance width="1965"/>
  <unicode hex="00AE"/>
  <outline>
    <contour>
      <point x="649" y="266" type="line"/>
      <point x="822" y="266" type="line"/>
      <point x="822" y="660" type="line"/>
      <point x="1003" y="660" type="line"/>
      <point x="1237" y="266" type="line"/>
      <point x="1411" y="266" type="line"/>
      <point x="1411" y="311" type="line"/>
      <point x="1170" y="686" type="line"/>
      <point x="1309" y="732"/>
      <point x="1356" y="801"/>
      <point x="1356" y="942" type="curve" smooth="yes"/>
      <point x="1356" y="1184"/>
      <point x="1147" y="1213"/>
      <point x="964" y="1213" type="curve" smooth="yes"/>
      <point x="649" y="1213" type="line"/>
    </contour>
    <contour>
      <point x="822" y="798" type="line"/>
      <point x="822" y="1082" type="line"/>
      <point x="974" y="1082" type="line" smooth="yes"/>
      <point x="1125" y="1082"/>
      <point x="1190" y="1033"/>
      <point x="1190" y="944" type="curve" smooth="yes"/>
      <point x="1190" y="846"/>
      <point x="1141" y="798"/>
      <point x="1010" y="798" type="curve" smooth="yes"/>
    </contour>
    <contour>
      <point x="984" y="54" type="curve" smooth="yes"/>
      <point x="593" y="54"/>
      <point x="294" y="332"/>
      <point x="294" y="725" type="curve" smooth="yes"/>
      <point x="294" y="1102"/>
      <point x="577" y="1394"/>
      <point x="984" y="1394" type="curve" smooth="yes"/>
      <point x="1378" y="1394"/>
      <point x="1684" y="1119"/>
      <point x="1684" y="728" type="curve" smooth="yes"/>
      <point x="1684" y="341"/>
      <point x="1394" y="54"/>
    </contour>
    <contour>
      <point x="984" y="-122" type="curve" smooth="yes"/>
      <point x="1488" y="-122"/>
      <point x="1877" y="244"/>
      <point x="1877" y="725" type="curve" smooth="yes"/>
      <point x="1877" y="1212"/>
      <point x="1475" y="1570"/>
      <point x="984" y="1570" type="curve" smooth="yes"/>
      <point x="480" y="1570"/>
      <point x="89" y="1205"/>
      <point x="89" y="725" type="curve" smooth="yes"/>
      <point x="89" y="217"/>
      <point x="500" y="-122"/>
    </contour>
    <contour>
      <point x="789" y="0" type="move"/>
    </contour>
    <contour>
      <point x="789" y="1574" type="move"/>
    </contour>
  </outline>
</glyph>
<glyph name="macron" format="1">
  <advance width="493"/>
  <unicode hex="00AF"/>
  <outline>
    <contour>
      <point x="-49" y="1248" type="line"/>
      <point x="543" y="1248" type="line"/>
      <point x="543" y="1384" type="line"/>
      <point x="-49" y="1384" type="line"/>
    </contour>
    <contour>
      <point x="247" y="1098" type="move"/>
    </contour>
    <contour>
      <point x="247" y="1098" type="move" name="_top"/>
    </contour>
  </outline>
</glyph>
<glyph name="degree" format="1">
  <advance width="1016"/>
  <unicode hex="00B0"/>
  <outline>
    <contour>
      <point x="509" y="926" type="curve" smooth="yes"/>
      <point x="387" y="926"/>
      <point x="286" y="1021"/>
      <point x="286" y="1143" type="curve" smooth="yes"/>
      <point x="286" y="1260"/>
      <point x="386" y="1359"/>
      <point x="509" y="1359" type="curve" smooth="yes"/>
      <point x="632" y="1359"/>
      <point x="731" y="1260"/>
      <point x="731" y="1143" type="curve" smooth="yes"/>
      <point x="731" y="1024"/>
      <point x="633" y="926"/>
    </contour>
    <contour>
      <point x="509" y="812" type="curve" smooth="yes"/>
      <point x="702" y="812"/>
      <point x="858" y="958"/>
      <point x="858" y="1143" type="curve" smooth="yes"/>
      <point x="858" y="1327"/>
      <point x="702" y="1472"/>
      <point x="509" y="1472" type="curve" smooth="yes"/>
      <point x="318" y="1472"/>
      <point x="160" y="1328"/>
      <point x="160" y="1143" type="curve" smooth="yes"/>
      <point x="160" y="959"/>
      <point x="316" y="812"/>
    </contour>
  </outline>
</glyph>
<glyph name="periodcentered" format="1">
  <advance width="493"/>
  <unicode hex="00B7"/>
  <outline>
    <contour>
      <point x="247" y="463" type="curve" smooth="yes"/>
      <point x="323" y="463"/>
      <point x="385" y="524"/>
      <point x="385" y="600" type="curve" smooth="yes"/>
      <point x="385" y="676"/>
      <point x="323" y="738"/>
      <point x="247" y="738" type="curve" smooth="yes"/>
      <point x="171" y="738"/>
      <point x="109" y="676"/>
      <point x="109" y="600" type="curve" smooth="yes"/>
      <point x="109" y="524"/>
      <point x="171" y="463"/>
    </contour>
  </outline>
</glyph>
<glyph name="Eth" format="1">
  <advance width="1296"/>
  <unicode hex="00D0"/>
  <outline>
    <contour>
      <point x="30" y="710" type="line"/>
      <point x="737" y="710" type="line"/>
      <point x="737" y="907" type="line"/>
      <point x="30" y="907" type="line"/>
    </contour>
    <component base="D"/>
  </outline>
</glyph>
<glyph name="multiply" format="1">
  <advance width="1234"/>
  <unicode hex="00D7"/>
  <outline>
    <contour>
      <point x="251" y="43" type="line"/>
      <point x="617" y="413" type="line"/>
      <point x="983" y="43" type="line"/>
      <point x="1098" y="157" type="line"/>
      <point x="729" y="521" type="line"/>
      <point x="1098" y="889" type="line"/>
      <point x="983" y="1003" type="line"/>
      <point x="617" y="635" type="line"/>
      <point x="251" y="1003" type="line"/>
      <point x="138" y="889" type="line"/>
      <point x="507" y="521" type="line"/>
      <point x="138" y="157" type="line"/>
    </contour>
  </outline>
</glyph>
<glyph name="Thorn" format="1">
  <advance width="1474"/>
  <unicode hex="00DE"/>
  <outline>
    <contour>
      <point x="157.0" y="0.0" type="line"/>
      <point x="566.0" y="0.0" type="line"/>
      <point x="566" y="355" type="line"/>
      <point x="806" y="355" type="line" smooth="yes"/>
      <point x="1196" y="355"/>
      <point x="1429" y="582"/>
      <point x="1429" y="899" type="curve" smooth="yes"/>
      <point x="1429" y="1262"/>
      <point x="1151" y="1398"/>
      <point x="832" y="1398" type="curve" smooth="yes"/>
      <point x="566" y="1398" type="line"/>
      <point x="566" y="1574" type="line"/>
      <point x="157.0" y="1574.0" type="line"/>
    </contour>
    <contour>
      <point x="566" y="655" type="line"/>
      <point x="566" y="1098" type="line"/>
      <point x="677" y="1098" type="line" smooth="yes"/>
      <point x="817" y="1098"/>
      <point x="1013" y="1094"/>
      <point x="1013" y="895" type="curve" smooth="yes"/>
      <point x="1013" y="669"/>
      <point x="814" y="655"/>
      <point x="599" y="655" type="curve" smooth="yes"/>
    </contour>
  </outline>
</glyph>
<glyph name="germandbls" format="1">
  <advance width="1315"/>
  <unicode hex="00DF"/>
  <outline>
    <contour>
      <point x="747" y="-6" type="curve" smooth="yes"/>
      <point x="1116" y="-6"/>
      <point x="1323" y="169"/>
      <point x="1323" y="488" type="curve" smooth="yes"/>
      <point x="1323" y="661"/>
      <point x="1171" y="866"/>
      <point x="923" y="916" type="curve"/>
      <point x="923" y="929" type="line"/>
      <point x="1065" y="952"/>
      <point x="1195" y="1074"/>
      <point x="1195" y="1238" type="curve" smooth="yes"/>
      <point x="1195" y="1448"/>
      <point x="994" y="1599"/>
      <point x="664" y="1599" type="curve" smooth="yes"/>
      <point x="304" y="1599"/>
      <point x="124" y="1419"/>
      <point x="124" y="1096" type="curve" smooth="yes"/>
      <point x="124" y="0" type="line"/>
      <point x="485" y="0" type="line"/>
      <point x="485" y="1121" type="line" smooth="yes"/>
      <point x="485" y="1246.5"/>
      <point x="517.946" y="1345"/>
      <point x="685" y="1345" type="curve" smooth="yes"/>
      <point x="797" y="1345"/>
      <point x="843" y="1298"/>
      <point x="843" y="1197" type="curve" smooth="yes"/>
      <point x="843" y="1061"/>
      <point x="741" y="1036"/>
      <point x="638" y="1036" type="curve"/>
      <point x="638" y="762" type="line"/>
      <point x="835" y="762"/>
      <point x="958" y="645"/>
      <point x="958" y="503" type="curve" smooth="yes"/>
      <point x="958" y="348"/>
      <point x="863" y="272"/>
      <point x="678" y="272" type="curve" smooth="yes"/>
      <point x="666" y="272"/>
      <point x="654" y="271"/>
      <point x="642" y="272" type="curve"/>
      <point x="642" y="-1" type="line"/>
      <point x="687" y="-2"/>
      <point x="727" y="-6"/>
    </contour>
  </outline>
</glyph>
<glyph name="ae" format="1">
  <advance width="1884"/>
  <unicode hex="00E6"/>
  <outline>
    <contour>
      <point x="487" y="-24" type="curve" smooth="yes"/>
      <point x="649" y="-24"/>
      <point x="823" y="53"/>
      <point x="912" y="157" type="curve"/>
      <point x="995" y="72"/>
      <point x="1104" y="-27"/>
      <point x="1354" y="-27" type="curve" smooth="yes"/>
      <point x="1611" y="-27"/>
      <point x="1729" y="35"/>
      <point x="1821" y="96" type="curve"/>
      <point x="1766" y="352" type="line"/>
      <point x="1716" y="354" type="line"/>
      <point x="1660" y="280"/>
      <point x="1516" y="233"/>
      <point x="1405" y="233" type="curve" smooth="yes"/>
      <point x="1236" y="233"/>
      <point x="1105" y="289"/>
      <point x="1092" y="462" type="curve"/>
      <point x="1839" y="462" type="line"/>
      <point x="1839" y="617" type="line" smooth="yes"/>
      <point x="1839" y="939"/>
      <point x="1650" y="1131"/>
      <point x="1313" y="1131" type="curve" smooth="yes"/>
      <point x="1180" y="1131"/>
      <point x="1017" y="1084"/>
      <point x="939" y="963" type="curve"/>
      <point x="857" y="1096"/>
      <point x="716" y="1128"/>
      <point x="528" y="1128" type="curve" smooth="yes"/>
      <point x="365" y="1128"/>
      <point x="155" y="1077"/>
      <point x="84" y="1027" type="curve"/>
      <point x="145" y="786" type="line"/>
      <point x="232" y="837"/>
      <point x="390.469" y="878"/>
      <point x="481" y="878" type="curve" smooth="yes"/>
      <point x="685" y="878"/>
      <point x="729" y="799"/>
      <point x="729" y="699" type="curve"/>
      <point x="727" y="699"/>
      <point x="627" y="699"/>
      <point x="578" y="688" type="curve"/>
      <point x="280.26" y="666.733"/>
      <point x="33" y="579.166"/>
      <point x="33" y="319" type="curve" smooth="yes"/>
      <point x="33" y="100"/>
      <point x="191" y="-24"/>
    </contour>
    <contour>
      <point x="561" y="222" type="curve" smooth="yes"/>
      <point x="437" y="222"/>
      <point x="392" y="267"/>
      <point x="392" y="346" type="curve" smooth="yes"/>
      <point x="392" y="472"/>
      <point x="547" y="469"/>
      <point x="739" y="481" type="curve"/>
      <point x="745.862" y="382.645"/>
      <point x="760.001" y="222"/>
    </contour>
    <contour>
      <point x="1090" y="678" type="line"/>
      <point x="1089" y="813"/>
      <point x="1163" y="897"/>
      <point x="1290" y="897" type="curve" smooth="yes"/>
      <point x="1407" y="897"/>
      <point x="1478" y="825"/>
      <point x="1480" y="678" type="curve"/>
    </contour>
    <contour>
      <point x="942" y="1098" type="move"/>
    </contour>
    <contour>
      <point x="942" y="1098" type="move" name="top"/>
    </contour>
  </outline>
</glyph>
<glyph name="OE" format="1">
  <advance width="2123"/>
  <unicode hex="0152"/>
  <outline>
    <contour>
      <point x="728" y="0" type="curve" smooth="yes"/>
      <point x="2039" y="0" type="line"/>
      <point x="2039" y="304" type="line"/>
      <point x="1409" y="304" type="line"/>
      <point x="1409" y="676" type="line"/>
      <point x="1952" y="676" type="line"/>
      <point x="1952" y="976" type="line"/>
      <point x="1409" y="976" type="line"/>
      <point x="1409" y="1270" type="line"/>
      <point x="2038" y="1270" type="line"/>
      <point x="2038" y="1574" type="line"/>
      <point x="747" y="1574" type="line" smooth="yes"/>
      <point x="327" y="1574"/>
      <point x="67" y="1312"/>
      <point x="67" y="784" type="curve" smooth="yes"/>
      <point x="67" y="216"/>
      <point x="371" y="0"/>
    </contour>
    <contour>
      <point x="788" y="304" type="line"/>
      <point x="551" y="310"/>
      <point x="461" y="444"/>
      <point x="461" y="782" type="curve" smooth="yes"/>
      <point x="461" y="1144.75"/>
      <point x="557" y="1270"/>
      <point x="793" y="1270" type="curve" smooth="yes"/>
      <point x="1002" y="1270" type="line"/>
      <point x="1002" y="304" type="line"/>
    </contour>
    <contour>
      <point x="1062" y="1574" type="move"/>
    </contour>
    <contour>
      <point x="1062" y="1574" type="move" name="top"/>
    </contour>
  </outline>
</glyph>
<glyph name="uni02C9" format="1">
  <advance width="492"/>
  <unicode hex="02C9"/>
  <outline>
    <contour>
      <point x="-49" y="1243" type="line"/>
      <point x="541" y="1243" type="line"/>
      <point x="541" y="1420" type="line"/>
      <point x="-49" y="1420" type="line"/>
    </contour>
  </outline>
</glyph>
<glyph name="breve" format="1">
  <advance width="897"/>
  <unicode hex="02D8"/>
  <outline>
    <contour>
      <point x="453" y="1225" type="curve" smooth="yes"/>
      <point x="677" y="1225"/>
      <point x="820" y="1346"/>
      <point x="824" y="1574" type="curve"/>
      <point x="631" y="1574" type="line"/>
      <point x="623" y="1470"/>
      <point x="571" y="1400"/>
      <point x="453" y="1400" type="curve" smooth="yes"/>
      <point x="321" y="1400"/>
      <point x="283" y="1475"/>
      <point x="274" y="1574" type="curve"/>
      <point x="82" y="1574" type="line"/>
      <point x="86" y="1346"/>
      <point x="210" y="1225"/>
    </contour>
    <contour>
      <point x="453" y="1098" type="move"/>
    </contour>
    <contour>
      <point x="453" y="1098" type="move" name="_top"/>
    </contour>
  </outline>
</glyph>
<glyph name="dotaccent" format="1">
  <advance width="902"/>
  <unicode hex="02D9"/>
  <outline>
    <contour>
      <point x="442" y="1135" type="curve" smooth="yes"/>
      <point x="563" y="1135"/>
      <point x="662" y="1236"/>
      <point x="662" y="1355" type="curve" smooth="yes"/>
      <point x="662" y="1475"/>
      <point x="563" y="1574"/>
      <point x="442" y="1574" type="curve" smooth="yes"/>
      <point x="323" y="1574"/>
      <point x="224" y="1475"/>
      <point x="224" y="1355" type="curve" smooth="yes"/>
      <point x="224" y="1236"/>
      <point x="323" y="1135"/>
    </contour>
  </outline>
</glyph>
<glyph name="ogonek" format="1">
  <advance width="901"/>
  <unicode hex="02DB"/>
  <outline>
    <contour>
      <point x="506" y="-433" type="curve"/>
      <point x="572.068146637" y="-438.505678886"/>
      <point x="643.571240336" y="-425.438842737"/>
      <point x="712" y="-401" type="curve"/>
      <point x="701" y="-261" type="line"/>
      <point x="677" y="-270"/>
      <point x="633" y="-290"/>
      <point x="574" y="-290" type="curve" smooth="yes"/>
      <point x="492" y="-290"/>
      <point x="445" y="-238"/>
      <point x="448" y="-149" type="curve"/>
      <point x="453" y="-99"/>
      <point x="477" y="-42"/>
      <point x="515" y="6" type="curve"/>
      <point x="362" y="6" type="line"/>
      <point x="308.687758598" y="-55.7299637282"/>
      <point x="260.554976309" y="-142.068088525"/>
      <point x="271" y="-250" type="curve"/>
      <point x="288" y="-357"/>
      <point x="380" y="-433"/>
    </contour>
    <contour>
      <point x="712" y="10" type="move"/>
    </contour>
    <contour>
      <point x="712" y="10" type="move" name="_ogonek"/>
    </contour>
  </outline>
</glyph>
<glyph name="mu" format="1">
  <advance width="1299"/>
  <unicode hex="03BC"/>
  <outline>
    <contour>
      <point x="119" y="-364" type="line"/>
      <point x="483" y="-364" type="line"/>
      <point x="483" y="-24" type="line"/>
      <point x="491" y="-24"/>
      <point x="498" y="-24"/>
      <point x="506" y="-23" type="curve" smooth="yes"/>
      <point x="628" y="-16"/>
      <point x="746" y="48"/>
      <point x="811" y="161" type="curve"/>
      <point x="813" y="0" type="line"/>
      <point x="1174" y="0" type="line"/>
      <point x="1174" y="1102" type="line"/>
      <point x="813" y="1102" type="line"/>
      <point x="813" y="339" type="line"/>
      <point x="770" y="293"/>
      <point x="717" y="272"/>
      <point x="657" y="272" type="curve" smooth="yes"/>
      <point x="516" y="272"/>
      <point x="486" y="356"/>
      <point x="483" y="521" type="curve"/>
      <point x="483" y="1102" type="line"/>
      <point x="119" y="1102" type="line"/>
    </contour>
  </outline>
</glyph>
<glyph name="uni03BC" format="1">
  <advance width="1299"/>
  <unicode hex="03BC"/>
  <outline>
    <contour>
      <point x="119.0" y="-364.0" type="line"/>
      <point x="483.0" y="-364.0" type="line"/>
      <point x="483.0" y="-24.0" type="line"/>
      <point x="491.0" y="-24.0"/>
      <point x="498.0" y="-24.0"/>
      <point x="506.0" y="-23.0" type="curve" smooth="yes"/>
      <point x="628.0" y="-16.0"/>
      <point x="746.0" y="48.0"/>
      <point x="811.0" y="161.0" type="curve"/>
      <point x="813.0" y="0.0" type="line"/>
      <point x="1174.0" y="0.0" type="line"/>
      <point x="1174.0" y="1102.0" type="line"/>
      <point x="813.0" y="1102.0" type="line"/>
      <point x="813.0" y="339.0" type="line"/>
      <point x="770.0" y="293.0"/>
      <point x="717.0" y="272.0"/>
      <point x="657.0" y="272.0" type="curve" smooth="yes"/>
      <point x="516.0" y="272.0"/>
      <point x="486.0" y="356.0"/>
      <point x="483.0" y="521.0" type="curve"/>
      <point x="483.0" y="1102.0" type="line"/>
      <point x="119.0" y="1102.0" type="line"/>
    </contour>
  </outline>
</glyph>
<glyph name="pi" format="1">
  <advance width="1293"/>
  <unicode hex="03C0"/>
  <outline>
    <contour>
      <point x="167" y="0" type="curve"/>
      <point x="443" y="0" type="line"/>
      <point x="471" y="78"/>
      <point x="489" y="196"/>
      <point x="496" y="340" type="curve" smooth="yes"/>
      <point x="505" y="509"/>
      <point x="511" y="682"/>
      <point x="513" y="832" type="curve"/>
      <point x="771" y="832" type="line"/>
      <point x="771" y="347" type="line" smooth="yes"/>
      <point x="771" y="149"/>
      <point x="839" y="34"/>
      <point x="981" y="10" type="curve"/>
      <point x="1023" y="1"/>
      <point x="1062" y="1"/>
      <point x="1100" y="9" type="curve"/>
      <point x="1170" y="164" type="line"/>
      <point x="1144" y="176"/>
      <point x="1119" y="200"/>
      <point x="1100" y="255" type="curve"/>
      <point x="1063" y="267"/>
      <point x="1045" y="311"/>
      <point x="1045" y="384" type="curve" smooth="yes"/>
      <point x="1045" y="832" type="line"/>
      <point x="1235" y="832" type="line"/>
      <point x="1240" y="1047" type="line"/>
      <point x="350" y="1047" type="line" smooth="yes"/>
      <point x="187" y="1047"/>
      <point x="82" y="1036"/>
      <point x="11" y="985" type="curve"/>
      <point x="21" y="771" type="line"/>
      <point x="86" y="811"/>
      <point x="155" y="832"/>
      <point x="241" y="832" type="curve"/>
      <point x="240" y="684"/>
      <point x="234" y="517"/>
      <point x="225" y="353" type="curve" smooth="yes"/>
      <point x="217" y="211"/>
      <point x="198" y="90"/>
    </contour>
  </outline>
</glyph>
<glyph name="emdash" format="1">
  <advance width="1959"/>
  <unicode hex="2014"/>
  <outline>
    <contour>
      <point x="-47" y="499" type="line"/>
      <point x="2008" y="499" type="line"/>
      <point x="2008" y="762" type="line"/>
      <point x="-47" y="762" type="line"/>
    </contour>
  </outline>
</glyph>
<glyph name="quotedblleft" format="1">
  <advance width="948"/>
  <unicode hex="201C"/>
  <outline>
    <contour>
      <point x="220" y="1009" type="line"/>
      <point x="471" y="1009" type="line"/>
      <point x="360" y="1574" type="line"/>
      <point x="24" y="1574" type="line"/>
    </contour>
    <contour>
      <point x="636" y="1009" type="line"/>
      <point x="887" y="1009" type="line"/>
      <point x="776" y="1574" type="line"/>
      <point x="440" y="1574" type="line"/>
    </contour>
  </outline>
</glyph>
<glyph name="quotedblbase" format="1">
  <advance width="948"/>
  <unicode hex="201E"/>
  <outline>
    <contour>
      <point x="75" y="-260" type="line"/>
      <point x="259" y="-260" type="line"/>
      <point x="518" y="259" type="line"/>
      <point x="181" y="259" type="line"/>
    </contour>
    <contour>
      <point x="474" y="-260" type="line"/>
      <point x="658" y="-260" type="line"/>
      <point x="917" y="259" type="line"/>
      <point x="580" y="259" type="line"/>
    </contour>
  </outline>
</glyph>
<glyph name="bullet" format="1">
  <advance width="1323"/>
  <unicode hex="2022"/>
  <outline>
    <contour>
      <point x="661" y="218" type="curve" smooth="yes"/>
      <point x="934" y="218"/>
      <point x="1164" y="435"/>
      <point x="1164" y="698" type="curve" smooth="yes"/>
      <point x="1164" y="959"/>
      <point x="936" y="1176"/>
      <point x="661" y="1176" type="curve" smooth="yes"/>
      <point x="390" y="1176"/>
      <point x="159" y="959"/>
      <point x="159" y="698" type="curve" smooth="yes"/>
      <point x="159" y="436"/>
      <point x="388" y="218"/>
    </contour>
  </outline>
</glyph>
<glyph name="ellipsis" format="1">
  <advance width="2249"/>
  <unicode hex="2026"/>
  <outline>
    <contour>
      <point x="1700" y="0" type="curve"/>
      <point x="2054" y="0" type="line"/>
      <point x="2053" y="77"/>
      <point x="2049" y="151"/>
      <point x="2049" y="227" type="curve" smooth="yes"/>
      <point x="2049" y="275"/>
      <point x="2050" y="323"/>
      <point x="2054" y="374" type="curve"/>
      <point x="1700" y="374" type="line"/>
      <point x="1701" y="310"/>
      <point x="1703" y="247"/>
      <point x="1703" y="183" type="curve" smooth="yes"/>
      <point x="1703" y="162"/>
      <point x="1704" y="140"/>
      <point x="1704" y="118" type="curve" smooth="yes"/>
      <point x="1704" y="80"/>
      <point x="1701" y="41"/>
    </contour>
    <contour>
      <point x="199" y="0" type="curve"/>
      <point x="552" y="0" type="line"/>
      <point x="549" y="76"/>
      <point x="546" y="150"/>
      <point x="546" y="225" type="curve" smooth="yes"/>
      <point x="546" y="272"/>
      <point x="549" y="323"/>
      <point x="552" y="374" type="curve"/>
      <point x="199" y="374" type="line"/>
      <point x="201" y="298"/>
      <point x="202" y="226"/>
      <point x="202" y="151" type="curve" smooth="yes"/>
      <point x="202" y="103"/>
      <point x="201" y="52"/>
    </contour>
    <contour>
      <point x="1298" y="-3" type="curve"/>
      <point x="1298" y="121"/>
      <point x="1300" y="246"/>
      <point x="1302" y="374" type="curve"/>
      <point x="1188" y="374"/>
      <point x="1069" y="378"/>
      <point x="954" y="381" type="curve"/>
      <point x="954" y="254"/>
      <point x="952" y="130"/>
      <point x="949" y="0" type="curve"/>
      <point x="1064" y="0"/>
      <point x="1182" y="-1"/>
    </contour>
  </outline>
</glyph>
<glyph name="perthousand" format="1">
  <advance width="2765"/>
  <unicode hex="2030"/>
  <outline>
    <contour>
      <point x="442" y="911" type="curve" smooth="yes"/>
      <point x="345" y="911"/>
      <point x="338" y="993"/>
      <point x="338" y="1104" type="curve" smooth="yes"/>
      <point x="338" y="1234"/>
      <point x="347" y="1312"/>
      <point x="442" y="1312" type="curve" smooth="yes"/>
      <point x="533" y="1312"/>
      <point x="546" y="1236"/>
      <point x="546" y="1118" type="curve"/>
      <point x="544" y="972"/>
      <point x="527" y="911"/>
    </contour>
    <contour>
      <point x="442" y="731" type="curve" smooth="yes"/>
      <point x="677" y="731"/>
      <point x="783" y="859"/>
      <point x="783" y="1138" type="curve" smooth="yes"/>
      <point x="783" y="1375"/>
      <point x="660" y="1489"/>
      <point x="442" y="1489" type="curve" smooth="yes"/>
      <point x="210" y="1489"/>
      <point x="96" y="1364"/>
      <point x="96" y="1084" type="curve" smooth="yes"/>
      <point x="96" y="843"/>
      <point x="224" y="731"/>
    </contour>
    <contour>
      <point x="441" y="0" type="line"/>
      <point x="700" y="0" type="line"/>
      <point x="1479" y="1485" type="line"/>
      <point x="1221" y="1485" type="line"/>
    </contour>
    <contour>
      <point x="1494" y="176" type="curve" smooth="yes"/>
      <point x="1397" y="176"/>
      <point x="1391" y="257"/>
      <point x="1391" y="369" type="curve" smooth="yes"/>
      <point x="1391" y="499"/>
      <point x="1400" y="577"/>
      <point x="1494" y="577" type="curve" smooth="yes"/>
      <point x="1586" y="577"/>
      <point x="1598" y="502"/>
      <point x="1598" y="384" type="curve" smooth="yes"/>
      <point x="1597" y="238"/>
      <point x="1579" y="176"/>
    </contour>
    <contour>
      <point x="1494" y="-4" type="curve" smooth="yes"/>
      <point x="1730" y="-4"/>
      <point x="1835" y="123"/>
      <point x="1835" y="403" type="curve" smooth="yes"/>
      <point x="1835" y="640"/>
      <point x="1712" y="754"/>
      <point x="1494" y="754" type="curve" smooth="yes"/>
      <point x="1262" y="754"/>
      <point x="1149" y="629"/>
      <point x="1149" y="349" type="curve" smooth="yes"/>
      <point x="1149" y="108"/>
      <point x="1276" y="-4"/>
    </contour>
    <contour>
      <point x="2319" y="176" type="curve" smooth="yes"/>
      <point x="2222" y="176"/>
      <point x="2216" y="258"/>
      <point x="2216" y="369" type="curve" smooth="yes"/>
      <point x="2216" y="499"/>
      <point x="2224" y="577"/>
      <point x="2319" y="577" type="curve" smooth="yes"/>
      <point x="2411" y="577"/>
      <point x="2423" y="502"/>
      <point x="2423" y="384" type="curve"/>
      <point x="2421" y="238"/>
      <point x="2404" y="176"/>
    </contour>
    <contour>
      <point x="2319" y="-4" type="curve" smooth="yes"/>
      <point x="2555" y="-4"/>
      <point x="2660" y="123"/>
      <point x="2660" y="403" type="curve" smooth="yes"/>
      <point x="2660" y="640"/>
      <point x="2537" y="754"/>
      <point x="2319" y="754" type="curve" smooth="yes"/>
      <point x="2087" y="754"/>
      <point x="1974" y="629"/>
      <point x="1974" y="349" type="curve" smooth="yes"/>
      <point x="1974" y="108"/>
      <point x="2101" y="-4"/>
    </contour>
  </outline>
</glyph>
<glyph name="guilsinglleft" format="1">
  <advance width="800"/>
  <unicode hex="2039"/>
  <outline>
    <contour>
      <point x="693" y="143" type="curve"/>
      <point x="693" y="445" type="line"/>
      <point x="612" y="510"/>
      <point x="534" y="568"/>
      <point x="452" y="631" type="curve"/>
      <point x="693" y="824" type="line"/>
      <point x="693" y="1120" type="line"/>
      <point x="693" y="1120"/>
      <point x="268" y="779"/>
      <point x="158" y="689" type="curve"/>
      <point x="158" y="565" type="line"/>
      <point x="267" y="484"/>
      <point x="693" y="143"/>
    </contour>
  </outline>
</glyph>
<glyph name="afii61289" format="1">
  <advance width="902"/>
  <unicode hex="2113"/>
  <outline>
    <contour>
      <point x="517" y="-4" type="curve" smooth="yes"/>
      <point x="659" y="-4"/>
      <point x="784" y="72"/>
      <point x="870" y="253" type="curve"/>
      <point x="788" y="337" type="line"/>
      <point x="739" y="251"/>
      <point x="660" y="159"/>
      <point x="560" y="159" type="curve" smooth="yes"/>
      <point x="464" y="159"/>
      <point x="389" y="241"/>
      <point x="387" y="434" type="curve"/>
      <point x="387" y="530" type="line"/>
      <point x="601" y="765"/>
      <point x="741" y="1005"/>
      <point x="741" y="1248" type="curve" smooth="yes"/>
      <point x="741" y="1446"/>
      <point x="666" y="1591"/>
      <point x="505" y="1591" type="curve" smooth="yes"/>
      <point x="344" y="1591"/>
      <point x="194" y="1451"/>
      <point x="194" y="1098" type="curve" smooth="yes"/>
      <point x="194" y="553" type="line"/>
      <point x="151" y="504"/>
      <point x="100" y="463"/>
      <point x="45" y="412" type="curve"/>
      <point x="96" y="298" type="line"/>
      <point x="129" y="327"/>
      <point x="165" y="360"/>
      <point x="196" y="385" type="curve"/>
      <point x="196" y="359" type="line"/>
      <point x="204" y="164"/>
      <point x="289" y="-4"/>
    </contour>
    <contour>
      <point x="387" y="728" type="curve"/>
      <point x="387" y="1085" type="line" smooth="yes"/>
      <point x="387" y="1357"/>
      <point x="452" y="1440"/>
      <point x="513" y="1440" type="curve" smooth="yes"/>
      <point x="591" y="1440"/>
      <point x="619" y="1371"/>
      <point x="619" y="1256" type="curve" smooth="yes"/>
      <point x="619" y="1087"/>
      <point x="521" y="901"/>
    </contour>
  </outline>
</glyph>
<glyph name="estimated" format="1">
  <advance width="1796"/>
  <unicode hex="212E"/>
  <outline>
    <contour>
      <point x="896" y="-10" type="curve" smooth="yes"/>
      <point x="1163" y="-10"/>
      <point x="1404" y="102"/>
      <point x="1550" y="277" type="curve"/>
      <point x="1433" y="277" type="line"/>
      <point x="1301" y="127"/>
      <point x="1112" y="31"/>
      <point x="898" y="31" type="curve" smooth="yes"/>
      <point x="700" y="31"/>
      <point x="521" y="117"/>
      <point x="391" y="251" type="curve"/>
      <point x="381" y="263"/>
      <point x="374" y="280"/>
      <point x="374" y="298" type="curve" smooth="yes"/>
      <point x="374" y="703" type="line" smooth="yes"/>
      <point x="374" y="710"/>
      <point x="379" y="712"/>
      <point x="385" y="712" type="curve" smooth="yes"/>
      <point x="1725" y="712" type="line"/>
      <point x="1725" y="730" type="line" smooth="yes"/>
      <point x="1725" y="1144"/>
      <point x="1356" y="1476"/>
      <point x="896" y="1476" type="curve" smooth="yes"/>
      <point x="440" y="1476"/>
      <point x="70" y="1144"/>
      <point x="70" y="730" type="curve" smooth="yes"/>
      <point x="70" y="320"/>
      <point x="440" y="-10"/>
    </contour>
    <contour>
      <point x="385" y="751" type="line" smooth="yes"/>
      <point x="379" y="751"/>
      <point x="374" y="759"/>
      <point x="374" y="765" type="curve" smooth="yes"/>
      <point x="374" y="1162" type="line" smooth="yes"/>
      <point x="374" y="1183"/>
      <point x="381" y="1201"/>
      <point x="393" y="1213" type="curve" smooth="yes"/>
      <point x="523" y="1345"/>
      <point x="702" y="1431"/>
      <point x="898" y="1431" type="curve" smooth="yes"/>
      <point x="1096" y="1431"/>
      <point x="1271" y="1347"/>
      <point x="1403" y="1219" type="curve" smooth="yes"/>
      <point x="1415" y="1207"/>
      <point x="1421" y="1189"/>
      <point x="1421" y="1172" type="curve" smooth="yes"/>
      <point x="1421" y="765" type="line" smooth="yes"/>
      <point x="1421" y="759"/>
      <point x="1419" y="751"/>
      <point x="1413" y="751" type="curve" smooth="yes"/>
    </contour>
  </outline>
</glyph>
<glyph name="partialdiff" format="1">
  <advance width="1175"/>
  <unicode hex="2202"/>
  <outline>
    <contour>
      <point x="482" y="-17" type="curve" smooth="yes"/>
      <point x="845" y="-17"/>
      <point x="1059" y="285"/>
      <point x="1107" y="759" type="curve"/>
      <point x="1116" y="831"/>
      <point x="1119" y="901"/>
      <point x="1116" y="968" type="curve" smooth="yes"/>
      <point x="1101" y="1343"/>
      <point x="934" y="1531"/>
      <point x="646" y="1548" type="curve" smooth="yes"/>
      <point x="501" y="1557"/>
      <point x="389" y="1520"/>
      <point x="305" y="1472" type="curve"/>
      <point x="282" y="1255" type="line"/>
      <point x="362" y="1304"/>
      <point x="462" y="1347"/>
      <point x="588" y="1324" type="curve"/>
      <point x="744" y="1299"/>
      <point x="829" y="1153"/>
      <point x="829" y="926" type="curve" smooth="yes"/>
      <point x="829" y="916"/>
      <point x="828" y="893"/>
      <point x="827" y="874" type="curve"/>
      <point x="823" y="874" type="line"/>
      <point x="775" y="952"/>
      <point x="684" y="1020"/>
      <point x="554" y="1020" type="curve" smooth="yes"/>
      <point x="271" y="1020"/>
      <point x="58" y="761"/>
      <point x="58" y="425" type="curve" smooth="yes"/>
      <point x="58" y="172"/>
      <point x="214" y="-17"/>
    </contour>
    <contour>
      <point x="514" y="202" type="curve" smooth="yes"/>
      <point x="408" y="202"/>
      <point x="348" y="288"/>
      <point x="348" y="431" type="curve" smooth="yes"/>
      <point x="348" y="626"/>
      <point x="462" y="816"/>
      <point x="611" y="816" type="curve" smooth="yes"/>
      <point x="707" y="816"/>
      <point x="771" y="747"/>
      <point x="796" y="655" type="curve"/>
      <point x="768" y="408"/>
      <point x="660" y="202"/>
    </contour>
  </outline>
</glyph>
<glyph name="summation" format="1">
  <advance width="1261"/>
  <unicode hex="2211"/>
  <outline>
    <contour>
      <point x="92" y="0" type="line"/>
      <point x="1176" y="0" type="line"/>
      <point x="1176" y="239" type="line"/>
      <point x="1176" y="239"/>
      <point x="445.0" y="239.0"/>
      <point x="445.0" y="239.0" type="curve"/>
      <point x="925" y="848" type="line"/>
      <point x="925" y="848"/>
      <point x="480.0" y="1341.0"/>
      <point x="480.0" y="1341.0" type="curve"/>
      <point x="1143" y="1341" type="line"/>
      <point x="1143" y="1574" type="line"/>
      <point x="115" y="1574" type="line"/>
      <point x="115" y="1401" type="line"/>
      <point x="630.0" y="830.0" type="line"/>
      <point x="92" y="164" type="line"/>
    </contour>
  </outline>
</glyph>
<glyph name="uni2215" format="1">
  <advance width="1197"/>
  <unicode hex="2215"/>
  <outline>
    <contour>
      <point x="140.0" y="0.0" type="line"/>
      <point x="443.0" y="0.0" type="line"/>
      <point x="1022.0" y="1574.0" type="line"/>
      <point x="717.0" y="1574.0" type="line"/>
    </contour>
  </outline>
</glyph>
<glyph name="radical" format="1">
  <advance width="1297"/>
  <unicode hex="221A"/>
  <outline>
    <contour>
      <point x="587" y="-106" type="line"/>
      <point x="781" y="-106" type="line"/>
      <point x="1205" y="1594" type="line"/>
      <point x="1020" y="1594" type="line"/>
      <point x="923" y="1193"/>
      <point x="821" y="794"/>
      <point x="724" y="394" type="curve"/>
      <point x="679" y="199" type="line"/>
      <point x="656" y="244"/>
      <point x="631" y="326"/>
      <point x="610" y="385" type="curve" smooth="yes"/>
      <point x="430" y="870" type="line"/>
      <point x="84" y="827" type="line"/>
      <point x="96" y="676" type="line"/>
      <point x="269" y="695" type="line"/>
    </contour>
  </outline>
</glyph>
<glyph name="integral" format="1">
  <advance width="1020"/>
  <unicode hex="222B"/>
  <outline>
    <contour>
      <point x="281" y="-415" type="curve" smooth="yes"/>
      <point x="554" y="-415"/>
      <point x="690" y="-263"/>
      <point x="690" y="75" type="curve" smooth="yes"/>
      <point x="690" y="138"/>
      <point x="690" y="1045"/>
      <point x="690" y="1080" type="curve" smooth="yes"/>
      <point x="690" y="1229"/>
      <point x="695" y="1359"/>
      <point x="827" y="1359" type="curve" smooth="yes"/>
      <point x="860" y="1359"/>
      <point x="929" y="1344"/>
      <point x="929" y="1344" type="curve"/>
      <point x="958" y="1547" type="line"/>
      <point x="923" y="1559"/>
      <point x="802" y="1575"/>
      <point x="744" y="1575" type="curve" smooth="yes"/>
      <point x="504" y="1575"/>
      <point x="340" y="1418"/>
      <point x="340" y="1131" type="curve" smooth="yes"/>
      <point x="340" y="1112"/>
      <point x="340" y="61"/>
      <point x="340" y="32" type="curve" smooth="yes"/>
      <point x="340" y="-158"/>
      <point x="284" y="-195"/>
      <point x="193" y="-195" type="curve" smooth="yes"/>
      <point x="160" y="-195"/>
      <point x="92" y="-178"/>
      <point x="92" y="-178" type="curve"/>
      <point x="60" y="-377" type="line"/>
      <point x="97" y="-390"/>
      <point x="220" y="-415"/>
    </contour>
  </outline>
</glyph>
<glyph name="approxequal" format="1">
  <advance width="1355"/>
  <unicode hex="2248"/>
  <outline>
    <contour>
      <point x="326" y="217" type="line"/>
      <point x="345" y="311"/>
      <point x="390" y="373"/>
      <point x="478" y="373" type="curve" smooth="yes"/>
      <point x="518" y="373"/>
      <point x="571" y="347"/>
      <point x="643" y="306" type="curve" smooth="yes"/>
      <point x="743" y="250"/>
      <point x="823" y="222"/>
      <point x="892" y="222" type="curve" smooth="yes"/>
      <point x="1063" y="222"/>
      <point x="1172" y="346"/>
      <point x="1196" y="527" type="curve"/>
      <point x="1029" y="551" type="line"/>
      <point x="1019.22398497" y="461.793862883"/>
      <point x="971.690879293" y="419.135049384"/>
      <point x="890.5" y="406.75" type="curve" smooth="yes"/>
      <point x="844.017522768" y="399.659452626"/>
      <point x="781.170820147" y="428.055296069"/>
      <point x="705" y="472" type="curve" smooth="yes"/>
      <point x="631" y="514"/>
      <point x="552" y="547"/>
      <point x="469" y="547" type="curve" smooth="yes"/>
      <point x="298" y="547"/>
      <point x="185" y="427"/>
      <point x="160" y="239" type="curve"/>
    </contour>
    <contour>
      <point x="326" y="631" type="line"/>
      <point x="345" y="723"/>
      <point x="391" y="783"/>
      <point x="478" y="783" type="curve" smooth="yes"/>
      <point x="519" y="783"/>
      <point x="573" y="759"/>
      <point x="643" y="719" type="curve" smooth="yes"/>
      <point x="742" y="662"/>
      <point x="822" y="634"/>
      <point x="893" y="634" type="curve" smooth="yes"/>
      <point x="1062" y="634"/>
      <point x="1172" y="758"/>
      <point x="1196" y="939" type="curve"/>
      <point x="1029" y="963" type="line"/>
      <point x="1017.10483627" y="872.596755649"/>
      <point x="970.462671692" y="817.978720857"/>
      <point x="883.375" y="815.625" type="curve" smooth="yes"/>
      <point x="837.096955224" y="814.374242033"/>
      <point x="777.83822554" y="840.153984976"/>
      <point x="705" y="883" type="curve" smooth="yes"/>
      <point x="632" y="926"/>
      <point x="552" y="958"/>
      <point x="470" y="958" type="curve" smooth="yes"/>
      <point x="298" y="958"/>
      <point x="185" y="840"/>
      <point x="160" y="654" type="curve"/>
    </contour>
  </outline>
</glyph>
<glyph name="notequal" format="1">
  <advance width="1355"/>
  <unicode hex="2260"/>
  <outline>
    <contour>
      <point x="499" y="41" type="line"/>
      <point x="628" y="289" type="line"/>
      <point x="1161" y="289" type="line"/>
      <point x="1161" y="464" type="line"/>
      <point x="715" y="464" type="line"/>
      <point x="841" y="708" type="line"/>
      <point x="1161" y="708" type="line"/>
      <point x="1161" y="884" type="line"/>
      <point x="929" y="884" type="line"/>
      <point x="1056" y="1127" type="line"/>
      <point x="854" y="1141" type="line"/>
      <point x="722" y="884" type="line"/>
      <point x="195" y="884" type="line"/>
      <point x="195" y="708" type="line"/>
      <point x="633" y="708" type="line"/>
      <point x="509" y="464" type="line"/>
      <point x="195" y="464" type="line"/>
      <point x="195" y="289" type="line"/>
      <point x="420" y="289" type="line"/>
      <point x="298" y="54" type="line"/>
    </contour>
  </outline>
</glyph>
<glyph name="lozenge" format="1">
  <advance width="1205"/>
  <unicode hex="25CA"/>
  <outline>
    <contour>
      <point x="599.0" y="188.0" type="curve"/>
      <point x="325" y="718" type="line"/>
      <point x="325" y="718"/>
      <point x="603.0" y="1244.0"/>
      <point x="603.0" y="1244.0" type="curve"/>
      <point x="603.0" y="1244.0"/>
      <point x="879" y="714"/>
      <point x="879" y="714" type="curve"/>
      <point x="879" y="714"/>
      <point x="599.0" y="188.0"/>
    </contour>
    <contour>
      <point x="479" y="-32" type="line"/>
      <point x="716" y="-32" type="line"/>
      <point x="1129" y="716" type="line"/>
      <point x="720" y="1464" type="line"/>
      <point x="483" y="1464" type="line"/>
      <point x="73" y="715" type="line"/>
    </contour>
  </outline>
</glyph>
<glyph name="three.superior" format="1">
  <advance width="722"/>
  <outline>
    <contour>
      <point x="340.0" y="583.0" type="curve" smooth="yes"/>
      <point x="564.0" y="583.0"/>
      <point x="692.0" y="697.0"/>
      <point x="692.0" y="861.0" type="curve" smooth="yes"/>
      <point x="692.0" y="970.0"/>
      <point x="605.0" y="1027.0"/>
      <point x="529.0" y="1050.0" type="curve"/>
      <point x="605.0" y="1084.0"/>
      <point x="669.0" y="1143.0"/>
      <point x="661.0" y="1266.0" type="curve" smooth="yes"/>
      <point x="652.0" y="1392.0"/>
      <point x="549.0" y="1477.0"/>
      <point x="342.0" y="1477.0" type="curve" smooth="yes"/>
      <point x="239.0" y="1477.0"/>
      <point x="122.0" y="1440.0"/>
      <point x="67.0" y="1401.0" type="curve"/>
      <point x="67.0" y="1221.0" type="line"/>
      <point x="111.0" y="1221.0" type="line"/>
      <point x="163.0" y="1271.0"/>
      <point x="235.0" y="1308.0"/>
      <point x="309.0" y="1308.0" type="curve" smooth="yes"/>
      <point x="359.0" y="1308.0"/>
      <point x="442.0" y="1289.0"/>
      <point x="442.0" y="1218.0" type="curve" smooth="yes"/>
      <point x="442.0" y="1135.0"/>
      <point x="375.0" y="1120.0"/>
      <point x="276.0" y="1120.0" type="curve" smooth="yes"/>
      <point x="240.0" y="1120.0" type="line"/>
      <point x="240.0" y="986.0" type="line"/>
      <point x="322.0" y="986.0" type="line" smooth="yes"/>
      <point x="427.0" y="986.0"/>
      <point x="470.0" y="954.0"/>
      <point x="470.0" y="880.0" type="curve" smooth="yes"/>
      <point x="470.0" y="772.0"/>
      <point x="372.0" y="751.0"/>
      <point x="294.0" y="753.0" type="curve" smooth="yes"/>
      <point x="211.0" y="755.0"/>
      <point x="146.0" y="793.0"/>
      <point x="101.0" y="838.0" type="curve"/>
      <point x="67.0" y="838.0" type="line"/>
      <point x="67.0" y="654.0" type="line"/>
      <point x="125.0" y="613.0"/>
      <point x="208.0" y="583.0"/>
    </contour>
  </outline>
</glyph>
